<svg width="2876" height="936" viewBox="0 0 2876 936" fill="none" xmlns="http://www.w3.org/2000/svg">
<path d="M6.83594 179.219C30.5339 168.411 51.4974 158.841 69.7266 150.508C87.9557 142.174 103.906 134.883 117.578 128.633C131.25 122.383 142.904 117.044 152.539 112.617C162.174 108.19 170.247 104.544 176.758 101.68C183.398 98.6849 188.672 96.3411 192.578 94.6484C196.484 92.8255 199.544 91.4583 201.758 90.5469C204.102 89.6354 205.794 88.9844 206.836 88.5938C207.878 88.0729 208.789 87.6823 209.57 87.4219C210.221 87.9427 210.872 88.6589 211.523 89.5703C212.174 90.4818 212.891 91.849 213.672 93.6719C214.453 95.4948 215.299 97.9036 216.211 100.898C217.253 103.893 218.49 107.799 219.922 112.617L42.7734 193.867L219.531 274.336C218.229 279.284 217.122 283.32 216.211 286.445C215.299 289.44 214.453 291.914 213.672 293.867C212.891 295.69 212.174 297.057 211.523 297.969C210.872 298.88 210.221 299.596 209.57 300.117C199.154 295.82 176.628 285.794 141.992 270.039C107.357 254.154 60.3516 232.604 0.976562 205.391C0.976562 202.005 0.976562 199.336 0.976562 197.383C0.976562 195.299 0.911458 193.737 0.78125 192.695C0.78125 191.523 0.78125 190.677 0.78125 190.156C0.78125 189.635 0.78125 189.18 0.78125 188.789C0.78125 187.096 1.10677 185.404 1.75781 183.711C2.53906 181.888 4.23177 180.391 6.83594 179.219ZM2614.65 608.516C2623.11 608.516 2628.45 610.273 2630.66 613.789C2630.4 614.57 2630.01 615.547 2629.49 616.719C2629.1 617.76 2628.26 619.844 2626.95 622.969C2625.78 626.094 2623.96 630.651 2621.48 636.641C2619.01 642.5 2615.56 650.573 2611.13 660.859C2606.84 671.016 2601.43 683.776 2594.92 699.141C2588.41 714.505 2580.4 733.255 2570.9 755.391C2561.52 777.526 2550.46 803.438 2537.7 833.125C2525.07 862.682 2510.48 896.862 2493.95 935.664H2479.88C2471.68 935.664 2466.21 933.646 2463.48 929.609L2600.98 608.516H2614.65ZM2870.7 779.414C2872.66 780.326 2873.96 782.018 2874.61 784.492C2875.26 786.836 2875.59 789.701 2875.59 793.086V805.586C2850.59 817.044 2828.52 827.135 2809.38 835.859C2790.23 844.583 2773.5 852.201 2759.18 858.711C2744.99 865.221 2732.88 870.755 2722.85 875.312C2712.96 879.87 2704.69 883.646 2698.05 886.641C2691.41 889.635 2686.13 892.044 2682.23 893.867C2678.45 895.56 2675.52 896.862 2673.44 897.773C2671.35 898.685 2669.92 899.336 2669.14 899.727C2668.36 899.987 2667.71 900.182 2667.19 900.312C2666.15 899.792 2665.17 899.01 2664.26 897.969C2663.48 896.927 2662.7 895.43 2661.91 893.477C2661.13 891.523 2660.35 889.049 2659.57 886.055C2658.79 883.06 2658.01 879.284 2657.23 874.727L2833.79 793.477L2656.84 712.812L2668.95 687.227L2870.7 779.414Z" fill="#15CDCB"/>
<path d="M555.134 26.2V55.8H479.134V305H442.734V55.8H366.334V26.2H555.134ZM708.741 81.8C725.274 81.8 740.207 85.4 753.541 92.6C766.874 99.5333 777.274 110.067 784.741 124.2C792.474 138.333 796.341 155.533 796.341 175.8V305H760.341V181C760.341 159.133 754.874 142.467 743.941 131C733.007 119.267 718.074 113.4 699.141 113.4C679.941 113.4 664.607 119.4 653.141 131.4C641.941 143.4 636.341 160.867 636.341 183.8V305H599.941V9H636.341V117C643.541 105.8 653.407 97.1333 665.941 91C678.741 84.8667 693.007 81.8 708.741 81.8ZM874.6 50.2C867.667 50.2 861.8 47.8 857 43C852.2 38.2 849.8 32.3333 849.8 25.4C849.8 18.4667 852.2 12.6 857 7.79999C861.8 2.99999 867.667 0.599985 874.6 0.599985C881.267 0.599985 886.867 2.99999 891.4 7.79999C896.2 12.6 898.6 18.4667 898.6 25.4C898.6 32.3333 896.2 38.2 891.4 43C886.867 47.8 881.267 50.2 874.6 50.2ZM892.2 85.8V305H855.8V85.8H892.2ZM940.638 194.6C940.638 172.2 945.171 152.6 954.238 135.8C963.304 118.733 975.704 105.533 991.438 96.2C1007.44 86.8667 1025.17 82.2 1044.64 82.2C1063.84 82.2 1080.5 86.3333 1094.64 94.6C1108.77 102.867 1119.3 113.267 1126.24 125.8V85.8H1163.04V305H1126.24V264.2C1119.04 277 1108.24 287.667 1093.84 296.2C1079.7 304.467 1063.17 308.6 1044.24 308.6C1024.77 308.6 1007.17 303.8 991.438 294.2C975.704 284.6 963.304 271.133 954.238 253.8C945.171 236.467 940.638 216.733 940.638 194.6ZM1126.24 195C1126.24 178.467 1122.9 164.067 1116.24 151.8C1109.57 139.533 1100.5 130.2 1089.04 123.8C1077.84 117.133 1065.44 113.8 1051.84 113.8C1038.24 113.8 1025.84 117 1014.64 123.4C1003.44 129.8 994.504 139.133 987.838 151.4C981.171 163.667 977.838 178.067 977.838 194.6C977.838 211.4 981.171 226.067 987.838 238.6C994.504 250.867 1003.44 260.333 1014.64 267C1025.84 273.4 1038.24 276.6 1051.84 276.6C1065.44 276.6 1077.84 273.4 1089.04 267C1100.5 260.333 1109.57 250.867 1116.24 238.6C1122.9 226.067 1126.24 211.533 1126.24 195ZM1314.95 82.2C1333.88 82.2 1350.42 86.3333 1364.55 94.6C1378.95 102.867 1389.62 113.267 1396.55 125.8V85.8H1433.35V309.8C1433.35 329.8 1429.08 347.533 1420.55 363C1412.02 378.733 1399.75 391 1383.75 399.8C1368.02 408.6 1349.62 413 1328.55 413C1299.75 413 1275.75 406.2 1256.55 392.6C1237.35 379 1226.02 360.467 1222.55 337H1258.55C1262.55 350.333 1270.82 361 1283.35 369C1295.88 377.267 1310.95 381.4 1328.55 381.4C1348.55 381.4 1364.82 375.133 1377.35 362.6C1390.15 350.067 1396.55 332.467 1396.55 309.8V263.8C1389.35 276.6 1378.68 287.267 1364.55 295.8C1350.42 304.333 1333.88 308.6 1314.95 308.6C1295.48 308.6 1277.75 303.8 1261.75 294.2C1246.02 284.6 1233.62 271.133 1224.55 253.8C1215.48 236.467 1210.95 216.733 1210.95 194.6C1210.95 172.2 1215.48 152.6 1224.55 135.8C1233.62 118.733 1246.02 105.533 1261.75 96.2C1277.75 86.8667 1295.48 82.2 1314.95 82.2ZM1396.55 195C1396.55 178.467 1393.22 164.067 1386.55 151.8C1379.88 139.533 1370.82 130.2 1359.35 123.8C1348.15 117.133 1335.75 113.8 1322.15 113.8C1308.55 113.8 1296.15 117 1284.95 123.4C1273.75 129.8 1264.82 139.133 1258.15 151.4C1251.48 163.667 1248.15 178.067 1248.15 194.6C1248.15 211.4 1251.48 226.067 1258.15 238.6C1264.82 250.867 1273.75 260.333 1284.95 267C1296.15 273.4 1308.55 276.6 1322.15 276.6C1335.75 276.6 1348.15 273.4 1359.35 267C1370.82 260.333 1379.88 250.867 1386.55 238.6C1393.22 226.067 1396.55 211.533 1396.55 195ZM1590.46 308.6C1569.93 308.6 1551.26 303.933 1534.46 294.6C1517.93 285.267 1504.86 272.067 1495.26 255C1485.93 237.667 1481.26 217.667 1481.26 195C1481.26 172.6 1486.06 152.867 1495.66 135.8C1505.53 118.467 1518.86 105.267 1535.66 96.2C1552.46 86.8667 1571.26 82.2 1592.06 82.2C1612.86 82.2 1631.66 86.8667 1648.46 96.2C1665.26 105.267 1678.46 118.333 1688.06 135.4C1697.93 152.467 1702.86 172.333 1702.86 195C1702.86 217.667 1697.8 237.667 1687.66 255C1677.8 272.067 1664.33 285.267 1647.26 294.6C1630.2 303.933 1611.26 308.6 1590.46 308.6ZM1590.46 276.6C1603.53 276.6 1615.8 273.533 1627.26 267.4C1638.73 261.267 1647.93 252.067 1654.86 239.8C1662.06 227.533 1665.66 212.6 1665.66 195C1665.66 177.4 1662.2 162.467 1655.26 150.2C1648.33 137.933 1639.26 128.867 1628.06 123C1616.86 116.867 1604.73 113.8 1591.66 113.8C1578.33 113.8 1566.06 116.867 1554.86 123C1543.93 128.867 1535.13 137.933 1528.46 150.2C1521.8 162.467 1518.46 177.4 1518.46 195C1518.46 212.867 1521.66 227.933 1528.06 240.2C1534.73 252.467 1543.53 261.667 1554.46 267.8C1565.4 273.667 1577.4 276.6 1590.46 276.6ZM1641.81 875.4H1739.41V905H1605.41V626.2H1641.81V875.4ZM1796.87 650.2C1789.93 650.2 1784.07 647.8 1779.27 643C1774.47 638.2 1772.07 632.333 1772.07 625.4C1772.07 618.467 1774.47 612.6 1779.27 607.8C1784.07 603 1789.93 600.6 1796.87 600.6C1803.53 600.6 1809.13 603 1813.67 607.8C1818.47 612.6 1820.87 618.467 1820.87 625.4C1820.87 632.333 1818.47 638.2 1813.67 643C1809.13 647.8 1803.53 650.2 1796.87 650.2ZM1814.47 685.8V905H1778.07V685.8H1814.47ZM1983.3 681.8C2009.97 681.8 2031.57 689.933 2048.1 706.2C2064.64 722.2 2072.9 745.4 2072.9 775.8V905H2036.9V781C2036.9 759.133 2031.44 742.467 2020.5 731C2009.57 719.267 1994.64 713.4 1975.7 713.4C1956.5 713.4 1941.17 719.4 1929.7 731.4C1918.5 743.4 1912.9 760.867 1912.9 783.8V905H1876.5V685.8H1912.9V717C1920.1 705.8 1929.84 697.133 1942.1 691C1954.64 684.867 1968.37 681.8 1983.3 681.8ZM2227.96 908.6C2207.43 908.6 2188.76 903.933 2171.96 894.6C2155.43 885.267 2142.36 872.067 2132.76 855C2123.43 837.667 2118.76 817.667 2118.76 795C2118.76 772.6 2123.56 752.867 2133.16 735.8C2143.03 718.467 2156.36 705.267 2173.16 696.2C2189.96 686.867 2208.76 682.2 2229.56 682.2C2250.36 682.2 2269.16 686.867 2285.96 696.2C2302.76 705.267 2315.96 718.333 2325.56 735.4C2335.43 752.467 2340.36 772.333 2340.36 795C2340.36 817.667 2335.3 837.667 2325.16 855C2315.3 872.067 2301.83 885.267 2284.76 894.6C2267.7 903.933 2248.76 908.6 2227.96 908.6ZM2227.96 876.6C2241.03 876.6 2253.3 873.533 2264.76 867.4C2276.23 861.267 2285.43 852.067 2292.36 839.8C2299.56 827.533 2303.16 812.6 2303.16 795C2303.16 777.4 2299.7 762.467 2292.76 750.2C2285.83 737.933 2276.76 728.867 2265.56 723C2254.36 716.867 2242.23 713.8 2229.16 713.8C2215.83 713.8 2203.56 716.867 2192.36 723C2181.43 728.867 2172.63 737.933 2165.96 750.2C2159.3 762.467 2155.96 777.4 2155.96 795C2155.96 812.867 2159.16 827.933 2165.56 840.2C2172.23 852.467 2181.03 861.667 2191.96 867.8C2202.9 873.667 2214.9 876.6 2227.96 876.6Z" fill="white"/>
</svg>
